<?xml version="1.0" encoding="UTF-8" standalone="no"?>
<svg
   xmlns:dc="http://purl.org/dc/elements/1.1/"
   xmlns:cc="http://creativecommons.org/ns#"
   xmlns:rdf="http://www.w3.org/1999/02/22-rdf-syntax-ns#"
   xmlns:svg="http://www.w3.org/2000/svg"
   xmlns="http://www.w3.org/2000/svg"
   xmlns:sodipodi="http://sodipodi.sourceforge.net/DTD/sodipodi-0.dtd"
   xmlns:inkscape="http://www.inkscape.org/namespaces/inkscape"
   width="604"
   height="192"
   viewBox="0 0 604 192"
   fill="none"
   version="1.1"
   id="svg4"
   sodipodi:docname="logo.svg"
   inkscape:version="0.92.5 (2060ec1f9f, 2020-04-08)">
  <metadata
     id="metadata10">
    <rdf:RDF>
      <cc:Work
         rdf:about="">
        <dc:format>image/svg+xml</dc:format>
        <dc:type
           rdf:resource="http://purl.org/dc/dcmitype/StillImage" />
      </cc:Work>
    </rdf:RDF>
  </metadata>
  <defs
     id="defs8" />
  <sodipodi:namedview
     pagecolor="#ffffff"
     bordercolor="#666666"
     borderopacity="1"
     objecttolerance="10"
     gridtolerance="10"
     guidetolerance="10"
     inkscape:pageopacity="0"
     inkscape:pageshadow="2"
     inkscape:window-width="2560"
     inkscape:window-height="1025"
     id="namedview6"
     showgrid="false"
     inkscape:zoom="0.68543046"
     inkscape:cx="29.178744"
     inkscape:cy="96"
     inkscape:window-x="0"
     inkscape:window-y="421"
     inkscape:window-maximized="1"
     inkscape:current-layer="svg4" />
  <path
     fill-rule="evenodd"
     clip-rule="evenodd"
     d="M68.9224 36.6884C70.6826 35.0448 71.5625 32.9921 71.5625 30.5282C71.5625 28.0644 70.6826 26.0693 68.9224 24.5439C67.1626 22.9013 65.2266 22.08 63.1147 22.08C61.0024 22.08 59.0664 22.9013 57.3066 24.5439C55.5464 26.0693 54.6665 28.0644 54.6665 30.5282C54.6665 32.9921 55.5464 35.0448 57.3066 36.6884C59.0664 38.2138 61.0024 38.9765 63.1147 38.9765C65.2266 38.9765 67.1626 38.2138 68.9224 36.6884ZM69.291 58.08H44.1846L3.17041 127.335H69.291V58.08ZM106.881 48.3271C106.802 47.2782 106.712 46.2734 106.61 45.3124H95.1704C95.4053 48.1279 95.581 51.2958 95.6987 54.8163C95.8159 58.3359 95.8745 61.2109 95.8745 63.4404V127.68H107.842V85.4404C107.842 79.9257 108.546 75.1738 109.954 71.1835C111.362 67.0771 113.239 63.7333 115.586 61.1523C117.933 58.453 120.573 56.4589 123.506 55.1679C126.557 53.8769 129.666 53.2323 132.834 53.2323C137.175 53.2323 140.754 53.9364 143.57 55.3437C146.503 56.7519 148.792 58.747 150.434 61.328C152.194 63.7919 153.426 66.7841 154.13 70.3036C154.834 73.8241 155.186 77.7548 155.186 82.0956V127.68H167.154V77.1679C167.154 66.9599 164.514 58.747 159.234 52.5282C154.071 46.3095 146.269 43.2001 135.826 43.2001C129.959 43.2001 124.386 44.7255 119.106 47.7763C113.826 50.7089 110.013 54.581 107.666 59.3915H107.314C107.314 57.6318 107.255 55.4023 107.138 52.704C107.071 51.1689 106.985 49.7099 106.881 48.3271ZM212.044 55.3437H235.276V45.3124H212.044V22.08H200.076V45.3124H183.004V55.3437H200.076V106.736C200.076 111.312 200.721 115.008 202.012 117.824C203.42 120.64 205.18 122.869 207.292 124.512C209.404 126.155 211.692 127.269 214.156 127.856C216.4 128.391 218.546 128.682 220.595 128.729C220.796 128.734 220.997 128.736 221.196 128.736C223.02 128.736 224.736 128.629 226.346 128.414C227.118 128.311 227.865 128.184 228.588 128.032C230.934 127.68 233.164 127.093 235.276 126.272L234.748 115.888C233.784 116.369 232.78 116.791 231.735 117.152C231 117.406 230.244 117.631 229.468 117.824C227.708 118.293 226.006 118.528 224.364 118.528C222.604 118.528 220.961 118.353 219.436 118C217.91 117.531 216.561 116.769 215.388 115.712C214.739 114.991 214.179 114.116 213.707 113.085C213.411 112.437 213.15 111.729 212.924 110.96C212.337 108.965 212.044 106.443 212.044 103.392V55.3437ZM309.263 60.9765C313.956 66.0214 316.479 72.4159 316.831 80.1601H260.687C260.922 76.6396 261.802 73.2958 263.327 70.1279C264.852 66.8427 266.906 63.9677 269.487 61.5038C272.068 58.9228 275.06 56.9277 278.463 55.5204C281.866 53.995 285.562 53.2323 289.551 53.2323C298.116 53.2323 304.687 55.8134 309.263 60.9765ZM328.975 86.6718V84.0321C328.975 78.4003 328.095 73.12 326.335 68.1923C324.692 63.2636 322.228 58.9814 318.943 55.3437C315.658 51.5898 311.551 48.6562 306.623 46.5439C301.695 44.3144 296.004 43.2001 289.551 43.2001C283.684 43.2001 278.228 44.3144 273.183 46.5439C268.138 48.6562 263.738 51.6484 259.983 55.5204C256.228 59.3915 253.295 63.9677 251.183 69.248C249.071 74.5282 248.015 80.2773 248.015 86.496C248.015 92.7148 249.071 98.4638 251.183 103.744C253.412 109.024 256.404 113.6 260.159 117.472C263.914 121.344 268.372 124.395 273.535 126.624C278.815 128.736 284.506 129.792 290.607 129.792C297.412 129.792 303.748 128.443 309.615 125.744C315.599 123.045 321.055 118.587 325.983 112.368L317.007 105.328C314.66 109.083 311.199 112.427 306.623 115.36C302.164 118.176 296.826 119.584 290.607 119.584C286.383 119.584 282.452 118.821 278.815 117.296C275.178 115.653 272.01 113.483 269.311 110.784C266.612 108.085 264.5 104.917 262.975 101.28C261.45 97.6425 260.628 93.7704 260.511 89.664H328.799C328.916 88.6083 328.975 87.6103 328.975 86.6718ZM354.542 54.8163C354.659 58.3359 354.718 61.2109 354.718 63.4404V127.68H366.686V85.4404C366.686 79.9257 367.331 75.2323 368.622 71.3603C370.03 67.371 371.79 64.1445 373.902 61.6796C376.131 59.0986 378.712 57.2216 381.646 56.0478C384.579 54.8749 387.63 54.288 390.798 54.288C392.44 54.288 394.083 54.4052 395.726 54.6396C397.368 54.8749 398.542 55.1093 399.246 55.3437L400.83 44.08C399.539 43.7284 398.248 43.4931 396.958 43.3759C395.784 43.2587 394.435 43.2001 392.91 43.2001C387.043 43.2001 381.763 44.7255 377.07 47.7763C372.376 50.7089 368.856 54.581 366.51 59.3915H366.158C366.158 57.6318 366.099 55.4023 365.982 52.704C365.864 50.0058 365.688 47.5409 365.454 45.3124H354.014C354.248 48.1279 354.424 51.2958 354.542 54.8163ZM470.31 60.9765C475.003 66.0214 477.526 72.4159 477.878 80.1601H421.733C421.969 76.6396 422.849 73.2958 424.374 70.1279C425.899 66.8427 427.953 63.9677 430.534 61.5038C433.115 58.9228 436.107 56.9277 439.51 55.5204C442.913 53.995 446.609 53.2323 450.598 53.2323C459.163 53.2323 465.734 55.8134 470.31 60.9765ZM490.022 86.6718V84.0321C490.022 78.4003 489.142 73.12 487.382 68.1923C485.739 63.2636 483.275 58.9814 479.99 55.3437C476.705 51.5898 472.598 48.6562 467.67 46.5439C462.742 44.3144 457.051 43.2001 450.598 43.2001C444.731 43.2001 439.275 44.3144 434.23 46.5439C429.185 48.6562 424.785 51.6484 421.03 55.5204C417.275 59.3915 414.342 63.9677 412.23 69.248C410.118 74.5282 409.062 80.2773 409.062 86.496C409.062 92.7148 410.118 98.4638 412.23 103.744C414.459 109.024 417.451 113.6 421.206 117.472C424.961 121.344 429.419 124.395 434.582 126.624C439.862 128.736 445.553 129.792 451.654 129.792C458.459 129.792 464.795 128.443 470.662 125.744C476.646 123.045 482.102 118.587 487.03 112.368L478.054 105.328C475.707 109.083 472.246 112.427 467.67 115.36C463.211 118.176 457.873 119.584 451.654 119.584C447.43 119.584 443.499 118.821 439.862 117.296C436.225 115.653 433.057 113.483 430.358 110.784C427.659 108.085 425.547 104.917 424.022 101.28C422.497 97.6425 421.675 93.7704 421.558 89.664H489.846C489.963 88.6083 490.022 87.6103 490.022 86.6718ZM515.765 169.92H527.732V113.776H528.261C531.663 118.939 536.181 122.928 541.813 125.744C547.562 128.443 553.37 129.792 559.237 129.792C565.69 129.792 571.498 128.677 576.661 126.448C581.941 124.219 586.399 121.168 590.037 117.296C593.791 113.424 596.666 108.848 598.661 103.568C600.773 98.288 601.829 92.5976 601.829 86.496C601.829 80.3945 600.773 74.704 598.661 69.4238C596.666 64.1445 593.791 59.5683 590.037 55.6962C586.399 51.8241 581.941 48.7734 576.661 46.5439C571.498 44.3144 565.69 43.2001 559.237 43.2001C553.37 43.2001 547.562 44.6083 541.813 47.4238C536.181 50.123 531.663 54.1708 528.261 59.5683H527.732V45.3124H515.765V169.92ZM587.045 73.6484C588.453 77.6376 589.157 81.9198 589.157 86.496C589.157 91.0722 588.453 95.413 587.045 99.5204C585.637 103.51 583.583 107.029 580.885 110.08C578.303 113.013 575.077 115.36 571.205 117.12C567.333 118.763 562.933 119.584 558.005 119.584C553.429 119.584 549.205 118.763 545.333 117.12C541.461 115.36 538.117 113.013 535.301 110.08C532.485 107.147 530.255 103.686 528.613 99.6962C527.087 95.5898 526.325 91.1894 526.325 86.496C526.325 81.8027 527.087 77.4609 528.613 73.4716C530.255 69.3652 532.485 65.8456 535.301 62.912C538.117 59.8612 541.461 57.5146 545.333 55.872C549.205 54.1122 553.429 53.2323 558.005 53.2323C562.933 53.2323 567.333 54.1122 571.205 55.872C575.077 57.6318 578.303 60.037 580.885 63.0878C583.583 66.0214 585.637 69.5409 587.045 73.6484Z"
     fill="white"
     id="path2"
     style="fill:#000000;fill-opacity:1" />
</svg>
