<svg width="640" height="640" viewBox="0 0 640 640" fill="none" xmlns="http://www.w3.org/2000/svg">
<path d="M640 320C640 143.269 496.731 0 320 0C143.269 0 0 143.269 0 320C0 496.731 143.269 640 320 640C496.731 640 640 496.731 640 320Z" fill="#1D1D1D"/>
<path fill-rule="evenodd" clip-rule="evenodd" d="M459.484 154.569C467.143 147.418 470.971 138.486 470.971 127.765C470.971 117.045 467.143 108.364 459.484 101.726C451.826 94.5789 443.403 91.0051 434.213 91.0051C425.022 91.0051 416.598 94.5789 408.941 101.726C401.282 108.364 397.453 117.045 397.453 127.765C397.453 138.486 401.282 147.418 408.941 154.569C416.598 161.207 425.022 164.525 434.213 164.525C443.403 164.525 451.826 161.207 459.484 154.569ZM461.087 247.65H351.843L173.381 548.995H461.087V247.65Z" fill="white"/>
</svg>
